<mxfile host="Electron" modified="2023-12-06T21:07:07.804Z" agent="Mozilla/5.0 (Windows NT 10.0; Win64; x64) AppleWebKit/537.36 (KHTML, like Gecko) draw.io/22.0.0 Chrome/114.0.5735.289 Electron/25.8.3 Safari/537.36" etag="b0tpyUw27Hbh2x5GdPPg" version="22.0.0" type="device">
  <diagram id="R2lEEEUBdFMjLlhIrx00" name="Page-1">
    <mxGraphModel dx="2922" dy="1212" grid="1" gridSize="10" guides="1" tooltips="1" connect="1" arrows="1" fold="1" page="1" pageScale="1" pageWidth="850" pageHeight="1100" math="0" shadow="0" extFonts="Permanent Marker^https://fonts.googleapis.com/css?family=Permanent+Marker">
      <root>
        <mxCell id="0" />
        <mxCell id="1" parent="0" />
        <mxCell id="HYAcCXo3C-gVs6QGrrEk-1" value="&lt;font style=&quot;font-size: 18px;&quot;&gt;Customer&lt;/font&gt;&lt;font size=&quot;1&quot;&gt;&lt;br&gt;&lt;/font&gt;" style="rounded=0;whiteSpace=wrap;html=1;" parent="1" vertex="1">
          <mxGeometry x="60" y="180" width="180" height="70" as="geometry" />
        </mxCell>
        <mxCell id="HYAcCXo3C-gVs6QGrrEk-2" value="nationality" style="ellipse;whiteSpace=wrap;html=1;align=center;" parent="1" vertex="1">
          <mxGeometry x="-100" y="70" width="100" height="40" as="geometry" />
        </mxCell>
        <mxCell id="HYAcCXo3C-gVs6QGrrEk-9" style="rounded=0;orthogonalLoop=1;jettySize=auto;html=1;exitX=1;exitY=1;exitDx=0;exitDy=0;endArrow=none;endFill=0;" parent="1" source="HYAcCXo3C-gVs6QGrrEk-3" edge="1">
          <mxGeometry relative="1" as="geometry">
            <mxPoint x="60" y="180" as="targetPoint" />
          </mxGeometry>
        </mxCell>
        <mxCell id="HYAcCXo3C-gVs6QGrrEk-3" value="email-address" style="ellipse;whiteSpace=wrap;html=1;align=center;" parent="1" vertex="1">
          <mxGeometry x="-110" y="160" width="100" height="40" as="geometry" />
        </mxCell>
        <mxCell id="HYAcCXo3C-gVs6QGrrEk-15" style="rounded=0;orthogonalLoop=1;jettySize=auto;html=1;exitX=1;exitY=1;exitDx=0;exitDy=0;entryX=0.5;entryY=0;entryDx=0;entryDy=0;endArrow=none;endFill=0;" parent="1" edge="1">
          <mxGeometry relative="1" as="geometry">
            <mxPoint x="157.5877815203393" y="44.21676274226502" as="sourcePoint" />
            <mxPoint x="142.42" y="179.9999999999999" as="targetPoint" />
          </mxGeometry>
        </mxCell>
        <mxCell id="HYAcCXo3C-gVs6QGrrEk-4" value="name" style="ellipse;whiteSpace=wrap;html=1;align=center;" parent="1" vertex="1">
          <mxGeometry x="80" y="10" width="100" height="40" as="geometry" />
        </mxCell>
        <mxCell id="HYAcCXo3C-gVs6QGrrEk-5" value="ID" style="ellipse;whiteSpace=wrap;html=1;align=center;fontStyle=4;" parent="1" vertex="1">
          <mxGeometry x="-10" y="40" width="100" height="40" as="geometry" />
        </mxCell>
        <mxCell id="HYAcCXo3C-gVs6QGrrEk-6" style="rounded=0;orthogonalLoop=1;jettySize=auto;html=1;endArrow=none;endFill=0;" parent="1" source="HYAcCXo3C-gVs6QGrrEk-5" edge="1">
          <mxGeometry relative="1" as="geometry">
            <mxPoint x="130" y="180" as="targetPoint" />
          </mxGeometry>
        </mxCell>
        <mxCell id="HYAcCXo3C-gVs6QGrrEk-8" style="rounded=0;orthogonalLoop=1;jettySize=auto;html=1;exitX=1;exitY=1;exitDx=0;exitDy=0;endArrow=none;endFill=0;" parent="1" source="HYAcCXo3C-gVs6QGrrEk-2" edge="1">
          <mxGeometry relative="1" as="geometry">
            <mxPoint x="70" y="180" as="targetPoint" />
          </mxGeometry>
        </mxCell>
        <mxCell id="HYAcCXo3C-gVs6QGrrEk-11" value="phone number" style="ellipse;whiteSpace=wrap;html=1;align=center;" parent="1" vertex="1">
          <mxGeometry x="180" y="35" width="100" height="50" as="geometry" />
        </mxCell>
        <mxCell id="HYAcCXo3C-gVs6QGrrEk-16" style="rounded=0;orthogonalLoop=1;jettySize=auto;html=1;exitX=0;exitY=1;exitDx=0;exitDy=0;entryX=0.642;entryY=0.02;entryDx=0;entryDy=0;entryPerimeter=0;endArrow=none;endFill=0;" parent="1" source="HYAcCXo3C-gVs6QGrrEk-11" target="HYAcCXo3C-gVs6QGrrEk-1" edge="1">
          <mxGeometry relative="1" as="geometry" />
        </mxCell>
        <mxCell id="HYAcCXo3C-gVs6QGrrEk-17" value="&lt;font style=&quot;font-size: 21px;&quot;&gt;YACHT&lt;/font&gt;" style="whiteSpace=wrap;html=1;align=center;" parent="1" vertex="1">
          <mxGeometry x="-760" y="380" width="220" height="90" as="geometry" />
        </mxCell>
        <mxCell id="HYAcCXo3C-gVs6QGrrEk-31" style="rounded=0;orthogonalLoop=1;jettySize=auto;html=1;exitX=0;exitY=1;exitDx=0;exitDy=0;entryX=0.441;entryY=0.014;entryDx=0;entryDy=0;entryPerimeter=0;endArrow=none;endFill=0;" parent="1" source="HYAcCXo3C-gVs6QGrrEk-18" target="HYAcCXo3C-gVs6QGrrEk-17" edge="1">
          <mxGeometry relative="1" as="geometry">
            <mxPoint x="-660" y="370" as="targetPoint" />
          </mxGeometry>
        </mxCell>
        <mxCell id="HYAcCXo3C-gVs6QGrrEk-18" value="number of berths" style="ellipse;whiteSpace=wrap;html=1;align=center;" parent="1" vertex="1">
          <mxGeometry x="-640" y="220" width="120" height="40" as="geometry" />
        </mxCell>
        <mxCell id="HYAcCXo3C-gVs6QGrrEk-19" value="Type" style="ellipse;whiteSpace=wrap;html=1;align=center;" parent="1" vertex="1">
          <mxGeometry x="-820" y="270" width="100" height="40" as="geometry" />
        </mxCell>
        <mxCell id="HYAcCXo3C-gVs6QGrrEk-21" value="Model" style="ellipse;whiteSpace=wrap;html=1;align=center;" parent="1" vertex="1">
          <mxGeometry x="-630" y="280" width="100" height="40" as="geometry" />
        </mxCell>
        <mxCell id="HYAcCXo3C-gVs6QGrrEk-26" style="rounded=0;orthogonalLoop=1;jettySize=auto;html=1;entryX=0;entryY=0.25;entryDx=0;entryDy=0;endArrow=none;endFill=0;" parent="1" source="HYAcCXo3C-gVs6QGrrEk-23" target="HYAcCXo3C-gVs6QGrrEk-17" edge="1">
          <mxGeometry relative="1" as="geometry" />
        </mxCell>
        <mxCell id="HYAcCXo3C-gVs6QGrrEk-23" value="name" style="ellipse;whiteSpace=wrap;html=1;align=center;fontStyle=4" parent="1" vertex="1">
          <mxGeometry x="-830" y="330" width="100" height="40" as="geometry" />
        </mxCell>
        <mxCell id="HYAcCXo3C-gVs6QGrrEk-25" value="cost of hire per day" style="ellipse;whiteSpace=wrap;html=1;align=center;" parent="1" vertex="1">
          <mxGeometry x="-530" y="250" width="120" height="50" as="geometry" />
        </mxCell>
        <mxCell id="HYAcCXo3C-gVs6QGrrEk-28" style="rounded=0;orthogonalLoop=1;jettySize=auto;html=1;exitX=1;exitY=0.5;exitDx=0;exitDy=0;entryX=0.318;entryY=0;entryDx=0;entryDy=0;entryPerimeter=0;endArrow=none;endFill=0;" parent="1" source="HYAcCXo3C-gVs6QGrrEk-19" target="HYAcCXo3C-gVs6QGrrEk-17" edge="1">
          <mxGeometry relative="1" as="geometry" />
        </mxCell>
        <mxCell id="HYAcCXo3C-gVs6QGrrEk-30" style="edgeStyle=orthogonalEdgeStyle;rounded=0;orthogonalLoop=1;jettySize=auto;html=1;exitX=0.5;exitY=1;exitDx=0;exitDy=0;entryX=0.818;entryY=0;entryDx=0;entryDy=0;entryPerimeter=0;endArrow=none;endFill=0;" parent="1" source="HYAcCXo3C-gVs6QGrrEk-21" target="HYAcCXo3C-gVs6QGrrEk-17" edge="1">
          <mxGeometry relative="1" as="geometry" />
        </mxCell>
        <mxCell id="HYAcCXo3C-gVs6QGrrEk-32" style="edgeStyle=orthogonalEdgeStyle;rounded=0;orthogonalLoop=1;jettySize=auto;html=1;exitX=1;exitY=1;exitDx=0;exitDy=0;entryX=0.377;entryY=-0.008;entryDx=0;entryDy=0;entryPerimeter=0;endArrow=none;endFill=0;" parent="1" target="HYAcCXo3C-gVs6QGrrEk-17" edge="1">
          <mxGeometry relative="1" as="geometry">
            <mxPoint x="-676.8985017624348" y="242.39183262217534" as="sourcePoint" />
          </mxGeometry>
        </mxCell>
        <mxCell id="HYAcCXo3C-gVs6QGrrEk-33" style="rounded=0;orthogonalLoop=1;jettySize=auto;html=1;exitX=0.5;exitY=1;exitDx=0;exitDy=0;entryX=0.935;entryY=-0.004;entryDx=0;entryDy=0;entryPerimeter=0;endArrow=none;endFill=0;" parent="1" source="HYAcCXo3C-gVs6QGrrEk-25" target="HYAcCXo3C-gVs6QGrrEk-17" edge="1">
          <mxGeometry relative="1" as="geometry" />
        </mxCell>
        <mxCell id="HYAcCXo3C-gVs6QGrrEk-44" value="&lt;font style=&quot;font-size: 20px;&quot;&gt;PORT&lt;/font&gt;" style="whiteSpace=wrap;html=1;align=center;" parent="1" vertex="1">
          <mxGeometry x="-330" y="690" width="270" height="100" as="geometry" />
        </mxCell>
        <mxCell id="HYAcCXo3C-gVs6QGrrEk-51" style="rounded=0;orthogonalLoop=1;jettySize=auto;html=1;exitX=1;exitY=1;exitDx=0;exitDy=0;entryX=0;entryY=1;entryDx=0;entryDy=0;endArrow=none;endFill=0;" parent="1" source="HYAcCXo3C-gVs6QGrrEk-45" target="HYAcCXo3C-gVs6QGrrEk-44" edge="1">
          <mxGeometry relative="1" as="geometry" />
        </mxCell>
        <mxCell id="HYAcCXo3C-gVs6QGrrEk-45" value="Number of docking places" style="ellipse;whiteSpace=wrap;html=1;align=center;" parent="1" vertex="1">
          <mxGeometry x="-540" y="780" width="170" height="80" as="geometry" />
        </mxCell>
        <mxCell id="HYAcCXo3C-gVs6QGrrEk-47" value="phone number" style="ellipse;whiteSpace=wrap;html=1;align=center;" parent="1" vertex="1">
          <mxGeometry x="-150" y="867.5" width="160" height="75" as="geometry" />
        </mxCell>
        <mxCell id="HYAcCXo3C-gVs6QGrrEk-48" value="email-address" style="ellipse;whiteSpace=wrap;html=1;align=center;" parent="1" vertex="1">
          <mxGeometry x="-320" y="920" width="190" height="70" as="geometry" />
        </mxCell>
        <mxCell id="HYAcCXo3C-gVs6QGrrEk-49" value="Name" style="ellipse;whiteSpace=wrap;html=1;align=center;fontStyle=4;" parent="1" vertex="1">
          <mxGeometry x="-420" y="870" width="130" height="70" as="geometry" />
        </mxCell>
        <mxCell id="HYAcCXo3C-gVs6QGrrEk-50" style="rounded=0;orthogonalLoop=1;jettySize=auto;html=1;exitX=1;exitY=0;exitDx=0;exitDy=0;entryX=0.313;entryY=1.012;entryDx=0;entryDy=0;entryPerimeter=0;endArrow=none;endFill=0;" parent="1" source="HYAcCXo3C-gVs6QGrrEk-49" target="HYAcCXo3C-gVs6QGrrEk-44" edge="1">
          <mxGeometry relative="1" as="geometry" />
        </mxCell>
        <mxCell id="HYAcCXo3C-gVs6QGrrEk-52" style="rounded=0;orthogonalLoop=1;jettySize=auto;html=1;exitX=0.5;exitY=0;exitDx=0;exitDy=0;entryX=0.464;entryY=1;entryDx=0;entryDy=0;entryPerimeter=0;endArrow=none;endFill=0;" parent="1" source="HYAcCXo3C-gVs6QGrrEk-48" target="HYAcCXo3C-gVs6QGrrEk-44" edge="1">
          <mxGeometry relative="1" as="geometry" />
        </mxCell>
        <mxCell id="HYAcCXo3C-gVs6QGrrEk-53" style="rounded=0;orthogonalLoop=1;jettySize=auto;html=1;exitX=0;exitY=0;exitDx=0;exitDy=0;entryX=0.646;entryY=1.012;entryDx=0;entryDy=0;entryPerimeter=0;endArrow=none;endFill=0;" parent="1" source="HYAcCXo3C-gVs6QGrrEk-47" target="HYAcCXo3C-gVs6QGrrEk-44" edge="1">
          <mxGeometry relative="1" as="geometry" />
        </mxCell>
        <mxCell id="IUKUT6XLat5yduV-XNA7-11" style="rounded=0;orthogonalLoop=1;jettySize=auto;html=1;exitX=0.75;exitY=1;exitDx=0;exitDy=0;entryX=0;entryY=0;entryDx=0;entryDy=0;endArrow=none;endFill=0;" parent="1" source="WsIC4z7Pu3Vu23XWrrn7-1" target="IUKUT6XLat5yduV-XNA7-7" edge="1">
          <mxGeometry relative="1" as="geometry" />
        </mxCell>
        <mxCell id="WsIC4z7Pu3Vu23XWrrn7-1" value="&lt;font style=&quot;font-size: 25px;&quot;&gt;CHARTER&lt;/font&gt;" style="whiteSpace=wrap;html=1;align=center;" parent="1" vertex="1">
          <mxGeometry x="610" y="450" width="250" height="100" as="geometry" />
        </mxCell>
        <mxCell id="IUKUT6XLat5yduV-XNA7-10" value="" style="edgeStyle=orthogonalEdgeStyle;rounded=0;orthogonalLoop=1;jettySize=auto;html=1;endArrow=none;endFill=0;" parent="1" source="IUKUT6XLat5yduV-XNA7-6" target="WsIC4z7Pu3Vu23XWrrn7-1" edge="1">
          <mxGeometry relative="1" as="geometry">
            <Array as="points">
              <mxPoint x="640" y="630" />
              <mxPoint x="640" y="630" />
            </Array>
          </mxGeometry>
        </mxCell>
        <mxCell id="IUKUT6XLat5yduV-XNA7-6" value="Duration" style="ellipse;whiteSpace=wrap;html=1;align=center;" parent="1" vertex="1">
          <mxGeometry x="520" y="647.5" width="170" height="70" as="geometry" />
        </mxCell>
        <mxCell id="IUKUT6XLat5yduV-XNA7-7" value="start date" style="ellipse;whiteSpace=wrap;html=1;align=center;" parent="1" vertex="1">
          <mxGeometry x="780" y="650" width="160" height="70" as="geometry" />
        </mxCell>
        <mxCell id="IUKUT6XLat5yduV-XNA7-8" value="&lt;u&gt;charter ID&lt;/u&gt;" style="ellipse;whiteSpace=wrap;html=1;align=center;" parent="1" vertex="1">
          <mxGeometry x="655" y="710" width="160" height="70" as="geometry" />
        </mxCell>
        <mxCell id="IUKUT6XLat5yduV-XNA7-9" style="rounded=0;orthogonalLoop=1;jettySize=auto;html=1;endArrow=none;endFill=0;entryX=0.5;entryY=1;entryDx=0;entryDy=0;" parent="1" source="IUKUT6XLat5yduV-XNA7-8" target="WsIC4z7Pu3Vu23XWrrn7-1" edge="1">
          <mxGeometry relative="1" as="geometry">
            <mxPoint x="730" y="560" as="targetPoint" />
          </mxGeometry>
        </mxCell>
        <mxCell id="IUKUT6XLat5yduV-XNA7-14" value="visit ID" style="ellipse;whiteSpace=wrap;html=1;align=center;fontStyle=4;" parent="1" vertex="1">
          <mxGeometry x="190" y="700" width="100" height="55" as="geometry" />
        </mxCell>
        <mxCell id="YigEooZunWX3FcmdNh6U-3" style="rounded=0;orthogonalLoop=1;jettySize=auto;html=1;endArrow=none;endFill=0;" parent="1" source="IUKUT6XLat5yduV-XNA7-15" target="YigEooZunWX3FcmdNh6U-2" edge="1">
          <mxGeometry relative="1" as="geometry" />
        </mxCell>
        <mxCell id="IUKUT6XLat5yduV-XNA7-15" value="duration of stay" style="ellipse;whiteSpace=wrap;html=1;align=center;" parent="1" vertex="1">
          <mxGeometry x="90" y="680" width="100" height="60" as="geometry" />
        </mxCell>
        <mxCell id="YigEooZunWX3FcmdNh6U-5" style="rounded=0;orthogonalLoop=1;jettySize=auto;html=1;exitX=0;exitY=0;exitDx=0;exitDy=0;entryX=1;entryY=1;entryDx=0;entryDy=0;endArrow=none;endFill=0;" parent="1" source="IUKUT6XLat5yduV-XNA7-16" target="YigEooZunWX3FcmdNh6U-2" edge="1">
          <mxGeometry relative="1" as="geometry" />
        </mxCell>
        <mxCell id="IUKUT6XLat5yduV-XNA7-16" value="expected date of arrival" style="ellipse;whiteSpace=wrap;html=1;align=center;" parent="1" vertex="1">
          <mxGeometry x="300" y="590" width="110" height="60" as="geometry" />
        </mxCell>
        <mxCell id="IUKUT6XLat5yduV-XNA7-22" value="" style="fontSize=12;html=1;endArrow=none;rounded=0;exitX=0.5;exitY=0;exitDx=0;exitDy=0;entryX=0.808;entryY=1.009;entryDx=0;entryDy=0;entryPerimeter=0;endFill=0;" parent="1" source="IUKUT6XLat5yduV-XNA7-31" target="HYAcCXo3C-gVs6QGrrEk-1" edge="1">
          <mxGeometry width="100" height="100" relative="1" as="geometry">
            <mxPoint x="230" y="390" as="sourcePoint" />
            <mxPoint x="260" y="310" as="targetPoint" />
          </mxGeometry>
        </mxCell>
        <mxCell id="IUKUT6XLat5yduV-XNA7-23" value="" style="fontSize=12;html=1;endArrow=none;rounded=0;exitX=0;exitY=0.25;exitDx=0;exitDy=0;entryX=1;entryY=0.75;entryDx=0;entryDy=0;endFill=0;" parent="1" source="IUKUT6XLat5yduV-XNA7-34" target="HYAcCXo3C-gVs6QGrrEk-17" edge="1">
          <mxGeometry width="100" height="100" relative="1" as="geometry">
            <mxPoint x="-60" y="605" as="sourcePoint" />
            <mxPoint x="-232" y="210" as="targetPoint" />
          </mxGeometry>
        </mxCell>
        <mxCell id="IUKUT6XLat5yduV-XNA7-29" value="" style="fontSize=12;html=1;endArrow=none;rounded=0;entryX=0.75;entryY=1;entryDx=0;entryDy=0;exitX=0.053;exitY=0.003;exitDx=0;exitDy=0;exitPerimeter=0;endFill=0;" parent="1" source="HYAcCXo3C-gVs6QGrrEk-44" target="HYAcCXo3C-gVs6QGrrEk-17" edge="1">
          <mxGeometry width="100" height="100" relative="1" as="geometry">
            <mxPoint x="20" y="550" as="sourcePoint" />
            <mxPoint x="120" y="450" as="targetPoint" />
            <Array as="points" />
          </mxGeometry>
        </mxCell>
        <mxCell id="IUKUT6XLat5yduV-XNA7-32" value="" style="fontSize=12;html=1;endArrow=none;rounded=0;entryX=0.5;entryY=1;entryDx=0;entryDy=0;endFill=0;" parent="1" target="IUKUT6XLat5yduV-XNA7-31" edge="1">
          <mxGeometry width="100" height="100" relative="1" as="geometry">
            <mxPoint x="610" y="460" as="sourcePoint" />
            <mxPoint x="205" y="251" as="targetPoint" />
          </mxGeometry>
        </mxCell>
        <mxCell id="IUKUT6XLat5yduV-XNA7-31" value="Book" style="shape=rhombus;perimeter=rhombusPerimeter;whiteSpace=wrap;html=1;align=center;" parent="1" vertex="1">
          <mxGeometry x="370" y="360" width="120" height="60" as="geometry" />
        </mxCell>
        <mxCell id="IUKUT6XLat5yduV-XNA7-35" value="" style="fontSize=12;html=1;endArrow=none;rounded=0;exitX=0;exitY=0.25;exitDx=0;exitDy=0;entryX=1;entryY=0.75;entryDx=0;entryDy=0;endFill=0;" parent="1" source="WsIC4z7Pu3Vu23XWrrn7-1" target="IUKUT6XLat5yduV-XNA7-34" edge="1">
          <mxGeometry width="100" height="100" relative="1" as="geometry">
            <mxPoint x="360" y="675" as="sourcePoint" />
            <mxPoint x="-540" y="448" as="targetPoint" />
          </mxGeometry>
        </mxCell>
        <mxCell id="IUKUT6XLat5yduV-XNA7-34" value="Involve" style="shape=rhombus;perimeter=rhombusPerimeter;whiteSpace=wrap;html=1;align=center;" parent="1" vertex="1">
          <mxGeometry x="-190" y="430" width="120" height="60" as="geometry" />
        </mxCell>
        <mxCell id="IUKUT6XLat5yduV-XNA7-36" value="Based in" style="shape=rhombus;perimeter=rhombusPerimeter;whiteSpace=wrap;html=1;align=center;" parent="1" vertex="1">
          <mxGeometry x="-515" y="560" width="120" height="60" as="geometry" />
        </mxCell>
        <mxCell id="YigEooZunWX3FcmdNh6U-2" value="&lt;font style=&quot;font-size: 28px;&quot;&gt;Visit&lt;/font&gt;" style="shape=rhombus;perimeter=rhombusPerimeter;whiteSpace=wrap;html=1;align=center;" parent="1" vertex="1">
          <mxGeometry x="110" y="560" width="140" height="70" as="geometry" />
        </mxCell>
        <mxCell id="YigEooZunWX3FcmdNh6U-4" style="rounded=0;orthogonalLoop=1;jettySize=auto;html=1;exitX=1;exitY=1;exitDx=0;exitDy=0;entryX=0.233;entryY=0.092;entryDx=0;entryDy=0;entryPerimeter=0;endArrow=none;endFill=0;" parent="1" source="YigEooZunWX3FcmdNh6U-2" target="IUKUT6XLat5yduV-XNA7-14" edge="1">
          <mxGeometry relative="1" as="geometry" />
        </mxCell>
        <mxCell id="YigEooZunWX3FcmdNh6U-7" value="" style="endArrow=none;html=1;rounded=0;exitX=1;exitY=0;exitDx=0;exitDy=0;entryX=0;entryY=0.5;entryDx=0;entryDy=0;" parent="1" source="HYAcCXo3C-gVs6QGrrEk-44" target="YigEooZunWX3FcmdNh6U-2" edge="1">
          <mxGeometry width="50" height="50" relative="1" as="geometry">
            <mxPoint y="610" as="sourcePoint" />
            <mxPoint x="50" y="560" as="targetPoint" />
          </mxGeometry>
        </mxCell>
        <mxCell id="YigEooZunWX3FcmdNh6U-10" value="" style="endArrow=none;html=1;rounded=0;exitX=1;exitY=0;exitDx=0;exitDy=0;" parent="1" source="YigEooZunWX3FcmdNh6U-2" edge="1">
          <mxGeometry width="50" height="50" relative="1" as="geometry">
            <mxPoint x="110" y="640" as="sourcePoint" />
            <mxPoint x="610" y="500" as="targetPoint" />
          </mxGeometry>
        </mxCell>
        <mxCell id="YigEooZunWX3FcmdNh6U-11" value="&lt;b&gt;1&lt;/b&gt;" style="text;html=1;strokeColor=none;fillColor=none;align=center;verticalAlign=middle;whiteSpace=wrap;rounded=0;" parent="1" vertex="1">
          <mxGeometry x="210" y="240" width="90" height="40" as="geometry" />
        </mxCell>
        <mxCell id="YigEooZunWX3FcmdNh6U-12" value="&lt;b&gt;N&lt;/b&gt;" style="text;html=1;strokeColor=none;fillColor=none;align=center;verticalAlign=middle;whiteSpace=wrap;rounded=0;" parent="1" vertex="1">
          <mxGeometry x="570" y="420" width="60" height="30" as="geometry" />
        </mxCell>
        <mxCell id="YigEooZunWX3FcmdNh6U-14" value="&lt;b&gt;1&lt;/b&gt;" style="text;html=1;strokeColor=none;fillColor=none;align=center;verticalAlign=middle;whiteSpace=wrap;rounded=0;" parent="1" vertex="1">
          <mxGeometry x="-550" y="420" width="60" height="30" as="geometry" />
        </mxCell>
        <mxCell id="YigEooZunWX3FcmdNh6U-16" value="&lt;b&gt;N&lt;/b&gt;" style="text;html=1;strokeColor=none;fillColor=none;align=center;verticalAlign=middle;whiteSpace=wrap;rounded=0;" parent="1" vertex="1">
          <mxGeometry x="540" y="470" width="60" height="30" as="geometry" />
        </mxCell>
        <mxCell id="YigEooZunWX3FcmdNh6U-18" value="&lt;b&gt;1&lt;/b&gt;" style="text;html=1;strokeColor=none;fillColor=none;align=center;verticalAlign=middle;whiteSpace=wrap;rounded=0;" parent="1" vertex="1">
          <mxGeometry x="-370" y="670" width="60" height="30" as="geometry" />
        </mxCell>
        <mxCell id="YigEooZunWX3FcmdNh6U-19" value="&lt;b&gt;N&lt;/b&gt;" style="text;html=1;strokeColor=none;fillColor=none;align=center;verticalAlign=middle;whiteSpace=wrap;rounded=0;" parent="1" vertex="1">
          <mxGeometry x="-630" y="470" width="60" height="30" as="geometry" />
        </mxCell>
        <mxCell id="YigEooZunWX3FcmdNh6U-20" value="" style="endArrow=none;html=1;rounded=0;exitX=0.999;exitY=0.063;exitDx=0;exitDy=0;exitPerimeter=0;entryX=0.047;entryY=0.533;entryDx=0;entryDy=0;entryPerimeter=0;" parent="1" source="HYAcCXo3C-gVs6QGrrEk-44" target="YigEooZunWX3FcmdNh6U-2" edge="1">
          <mxGeometry width="50" height="50" relative="1" as="geometry">
            <mxPoint x="-60" y="570" as="sourcePoint" />
            <mxPoint x="-10" y="520" as="targetPoint" />
          </mxGeometry>
        </mxCell>
        <mxCell id="YigEooZunWX3FcmdNh6U-21" value="" style="endArrow=none;html=1;rounded=0;" parent="1" edge="1">
          <mxGeometry width="50" height="50" relative="1" as="geometry">
            <mxPoint x="220" y="580" as="sourcePoint" />
            <mxPoint x="610" y="510" as="targetPoint" />
          </mxGeometry>
        </mxCell>
        <mxCell id="YigEooZunWX3FcmdNh6U-22" value="&lt;b&gt;M&lt;/b&gt;" style="text;html=1;strokeColor=none;fillColor=none;align=center;verticalAlign=middle;whiteSpace=wrap;rounded=0;" parent="1" vertex="1">
          <mxGeometry x="-70" y="690" width="60" height="30" as="geometry" />
        </mxCell>
        <mxCell id="YigEooZunWX3FcmdNh6U-23" value="&lt;b&gt;N&lt;/b&gt;" style="text;html=1;strokeColor=none;fillColor=none;align=center;verticalAlign=middle;whiteSpace=wrap;rounded=0;" parent="1" vertex="1">
          <mxGeometry x="560" y="510" width="60" height="30" as="geometry" />
        </mxCell>
        <mxCell id="Ofxn4xTWs57Nkeo9oTyM-1" value="home port" style="ellipse;whiteSpace=wrap;html=1;align=center;" parent="1" vertex="1">
          <mxGeometry x="-770" y="200" width="120" height="50" as="geometry" />
        </mxCell>
        <mxCell id="ODaNA0zdGINK4KEzZloB-2" style="rounded=0;orthogonalLoop=1;jettySize=auto;html=1;exitX=0;exitY=0;exitDx=0;exitDy=0;endArrow=none;endFill=0;" edge="1" parent="1" source="ODaNA0zdGINK4KEzZloB-1">
          <mxGeometry relative="1" as="geometry">
            <mxPoint x="220" y="610" as="targetPoint" />
          </mxGeometry>
        </mxCell>
        <mxCell id="ODaNA0zdGINK4KEzZloB-1" value="start_date" style="ellipse;whiteSpace=wrap;html=1;align=center;" vertex="1" parent="1">
          <mxGeometry x="270" y="655" width="110" height="55" as="geometry" />
        </mxCell>
        <mxCell id="ODaNA0zdGINK4KEzZloB-5" style="rounded=0;orthogonalLoop=1;jettySize=auto;html=1;exitX=0.5;exitY=1;exitDx=0;exitDy=0;entryX=0;entryY=0;entryDx=0;entryDy=0;endArrow=none;endFill=0;" edge="1" parent="1" source="ODaNA0zdGINK4KEzZloB-3" target="YigEooZunWX3FcmdNh6U-2">
          <mxGeometry relative="1" as="geometry" />
        </mxCell>
        <mxCell id="ODaNA0zdGINK4KEzZloB-3" value="pname*" style="ellipse;whiteSpace=wrap;html=1;align=center;" vertex="1" parent="1">
          <mxGeometry x="40" y="490" width="100" height="40" as="geometry" />
        </mxCell>
        <mxCell id="ODaNA0zdGINK4KEzZloB-4" value="charter_id*" style="ellipse;whiteSpace=wrap;html=1;align=center;" vertex="1" parent="1">
          <mxGeometry x="150" y="490" width="100" height="40" as="geometry" />
        </mxCell>
        <mxCell id="ODaNA0zdGINK4KEzZloB-6" style="edgeStyle=orthogonalEdgeStyle;rounded=0;orthogonalLoop=1;jettySize=auto;html=1;exitX=0.5;exitY=1;exitDx=0;exitDy=0;entryX=0.642;entryY=0.167;entryDx=0;entryDy=0;entryPerimeter=0;endArrow=none;endFill=0;" edge="1" parent="1" source="ODaNA0zdGINK4KEzZloB-4" target="YigEooZunWX3FcmdNh6U-2">
          <mxGeometry relative="1" as="geometry" />
        </mxCell>
        <mxCell id="ODaNA0zdGINK4KEzZloB-7" value="y_name*" style="ellipse;whiteSpace=wrap;html=1;align=center;" vertex="1" parent="1">
          <mxGeometry x="930" y="585" width="140" height="70" as="geometry" />
        </mxCell>
        <mxCell id="ODaNA0zdGINK4KEzZloB-9" style="rounded=0;orthogonalLoop=1;jettySize=auto;html=1;exitX=0;exitY=0;exitDx=0;exitDy=0;entryX=1;entryY=0.5;entryDx=0;entryDy=0;endArrow=none;endFill=0;" edge="1" parent="1" source="ODaNA0zdGINK4KEzZloB-8" target="WsIC4z7Pu3Vu23XWrrn7-1">
          <mxGeometry relative="1" as="geometry" />
        </mxCell>
        <mxCell id="ODaNA0zdGINK4KEzZloB-8" value="ID*" style="ellipse;whiteSpace=wrap;html=1;align=center;" vertex="1" parent="1">
          <mxGeometry x="1010" y="520" width="110" height="50" as="geometry" />
        </mxCell>
        <mxCell id="ODaNA0zdGINK4KEzZloB-10" style="rounded=0;orthogonalLoop=1;jettySize=auto;html=1;exitX=0;exitY=0;exitDx=0;exitDy=0;entryX=0.953;entryY=1.002;entryDx=0;entryDy=0;entryPerimeter=0;endArrow=none;endFill=0;" edge="1" parent="1" source="ODaNA0zdGINK4KEzZloB-7" target="WsIC4z7Pu3Vu23XWrrn7-1">
          <mxGeometry relative="1" as="geometry" />
        </mxCell>
        <mxCell id="ODaNA0zdGINK4KEzZloB-13" value="" style="endArrow=none;html=1;rounded=0;entryX=0.575;entryY=0.95;entryDx=0;entryDy=0;entryPerimeter=0;" edge="1" parent="1" target="IUKUT6XLat5yduV-XNA7-31">
          <mxGeometry width="50" height="50" relative="1" as="geometry">
            <mxPoint x="610" y="450" as="sourcePoint" />
            <mxPoint x="440" y="410" as="targetPoint" />
          </mxGeometry>
        </mxCell>
        <mxCell id="ODaNA0zdGINK4KEzZloB-15" value="" style="endArrow=none;html=1;rounded=0;exitX=1;exitY=0.5;exitDx=0;exitDy=0;entryX=0.006;entryY=0.159;entryDx=0;entryDy=0;entryPerimeter=0;" edge="1" parent="1" source="IUKUT6XLat5yduV-XNA7-34" target="WsIC4z7Pu3Vu23XWrrn7-1">
          <mxGeometry width="50" height="50" relative="1" as="geometry">
            <mxPoint x="190" y="440" as="sourcePoint" />
            <mxPoint x="240" y="390" as="targetPoint" />
          </mxGeometry>
        </mxCell>
        <mxCell id="ODaNA0zdGINK4KEzZloB-19" value="" style="endArrow=none;html=1;rounded=0;entryX=0.904;entryY=0.657;entryDx=0;entryDy=0;entryPerimeter=0;exitX=0.131;exitY=-0.026;exitDx=0;exitDy=0;exitPerimeter=0;" edge="1" parent="1">
          <mxGeometry width="50" height="50" relative="1" as="geometry">
            <mxPoint x="-308.1099999999999" y="689.9999999999999" as="sourcePoint" />
            <mxPoint x="-420" y="602.0199999999999" as="targetPoint" />
          </mxGeometry>
        </mxCell>
      </root>
    </mxGraphModel>
  </diagram>
</mxfile>
